<mxfile host="app.diagrams.net" modified="2023-09-15T08:14:46.078Z" agent="Mozilla/5.0 (Windows NT 10.0; Win64; x64) AppleWebKit/537.36 (KHTML, like Gecko) Chrome/116.0.0.0 Safari/537.36" etag="IQ7BBgC88JSzEnqe_C5W" version="21.6.5" type="github">
  <diagram name="Page-1" id="_xVrftXHtBA14w__Zcmd">
    <mxGraphModel dx="1257" dy="626" grid="1" gridSize="10" guides="1" tooltips="1" connect="1" arrows="1" fold="1" page="1" pageScale="1" pageWidth="1169" pageHeight="827" math="0" shadow="0">
      <root>
        <mxCell id="0" />
        <mxCell id="1" parent="0" />
      </root>
    </mxGraphModel>
  </diagram>
</mxfile>
